<svg xmlns="http://www.w3.org/2000/svg" viewBox="0 0 180 210" role="img" aria-labelledby="title desc">
  <title id="title">QRShield logo</title><desc id="desc">Blue cybersecurity shield with QR code and circuit lines.</desc>
  <defs>
    <linearGradient id="shield" x1="25" y1="15" x2="155" y2="190" gradientUnits="userSpaceOnUse"><stop stop-color="#00E5FF"/><stop offset="1" stop-color="#006DFF"/></linearGradient>
    <filter id="glow" x="-40%" y="-40%" width="180%" height="180%"><feGaussianBlur stdDeviation="5" result="blur"/><feMerge><feMergeNode in="blur"/><feMergeNode in="SourceGraphic"/></feMerge></filter>
  </defs>
  <path d="M90 8 156 32v58c0 51-27 88-66 111-39-23-66-60-66-111V32L90 8Z" fill="url(#shield)" filter="url(#glow)"/>
  <path d="M90 22 142 41v50c0 39-19 68-52 88-33-20-52-49-52-88V41l52-19Z" fill="#0B1120" opacity=".85"/>
  <g fill="#E6FBFF">
    <rect x="55" y="58" width="18" height="18" rx="2"/><rect x="78" y="58" width="8" height="8"/><rect x="100" y="58" width="25" height="8" rx="1"/><rect x="55" y="82" width="8" height="8"/><rect x="67" y="82" width="8" height="8"/><rect x="89" y="78" width="12" height="12"/><rect x="109" y="82" width="16" height="16" rx="2"/><rect x="55" y="103" width="18" height="18" rx="2"/><rect x="82" y="101" width="8" height="8"/><rect x="96" y="105" width="8" height="8"/><rect x="113" y="108" width="12" height="12"/><rect x="62" y="130" width="8" height="8"/><rect x="78" y="126" width="18" height="18"/><rect x="103" y="130" width="8" height="8"/><rect x="118" y="128" width="8" height="18"/>
  </g>
  <g stroke="#00E5FF" stroke-width="3" stroke-linecap="round" fill="none"><path d="M46 151h24m40 0h24M90 145v22M45 46h16m58 0h16"/><circle cx="74" cy="151" r="3" fill="#00E5FF"/><circle cx="106" cy="151" r="3" fill="#00E5FF"/></g>
</svg>
